<?xml version="1.0" encoding="UTF-8" standalone="no"?>
<!-- Created with Inkscape (http://www.inkscape.org/) -->

<svg
   width="10.965925mm"
   height="11.249103mm"
   viewBox="0 0 10.965925 11.249103"
   version="1.1"
   id="svg1"
   xml:space="preserve"
   xmlns:xlink="http://www.w3.org/1999/xlink"
   xmlns="http://www.w3.org/2000/svg"
   xmlns:svg="http://www.w3.org/2000/svg"><defs
     id="defs1"><linearGradient
       id="linearGradient6"><stop
         style="stop-color:#0e690e;stop-opacity:1;"
         offset="0"
         id="stop5" /><stop
         style="stop-color:#79d879;stop-opacity:1;"
         offset="1"
         id="stop6" /></linearGradient><linearGradient
       id="linearGradient9"><stop
         style="stop-color:#008000;stop-opacity:1;"
         offset="0"
         id="stop9" /><stop
         style="stop-color:#008000;stop-opacity:0.51445085;"
         offset="1"
         id="stop10" /></linearGradient><linearGradient
       xlink:href="#linearGradient6"
       id="linearGradient10"
       x1="99.626068"
       y1="153.46378"
       x2="111.28488"
       y2="142.32465"
       gradientUnits="userSpaceOnUse" /><linearGradient
       xlink:href="#linearGradient6"
       id="linearGradient13"
       x1="99.626068"
       y1="153.46378"
       x2="111.28488"
       y2="142.32465"
       gradientUnits="userSpaceOnUse" /><linearGradient
       xlink:href="#linearGradient9"
       id="linearGradient14"
       x1="104.74009"
       y1="150.73372"
       x2="106.43956"
       y2="150.73372"
       gradientUnits="userSpaceOnUse" /><linearGradient
       xlink:href="#linearGradient6"
       id="linearGradient15"
       x1="99.626068"
       y1="153.46378"
       x2="111.28488"
       y2="142.32465"
       gradientUnits="userSpaceOnUse" /></defs><g
     id="layer1"
     style="display:inline"
     transform="translate(-99.571196,-142.57441)"><ellipse
       style="opacity:1;fill:url(#linearGradient10);fill-opacity:1;stroke:none;stroke-width:0.26112;stroke-opacity:1"
       id="path4"
       cx="105.05415"
       cy="148.39978"
       rx="5.4829597"
       ry="5.2715173" /><path
       style="display:inline;opacity:1;fill:#000000;fill-opacity:1;stroke:url(#linearGradient13);stroke-width:0.566;stroke-linecap:square;stroke-linejoin:round;stroke-dasharray:none;stroke-dashoffset:0;stroke-opacity:1;paint-order:stroke fill markers"
       d="m 99.898665,144.19138 c 0,0 3.438555,6.04348 3.893475,6.98171 0.49754,1.02613 -0.0338,0.68311 -0.53189,0.59177 -0.75844,-0.13907 -0.58788,-0.25755 -2.03545,-0.0949 -1.447558,0.16265 -0.99627,1.84152 0.39748,1.86948 1.08964,0.0219 3.10679,-0.30707 3.22064,-1.07152 0.11385,-0.76444 -0.53466,-1.71225 -0.92913,-2.468 -0.70863,-1.35762 -1.56658,-2.67188 -1.86271,-3.3902 -0.1447,-0.36909 -0.23361,-0.73099 0.14047,-0.87737 0.37409,-0.14638 1.95177,-0.56927 1.95177,-0.66686 l 0.008,-2.20809 z"
       id="path1" /><ellipse
       style="opacity:1;fill:#000000;fill-opacity:1;stroke:url(#linearGradient14);stroke-width:0.330923;stroke-linecap:square;stroke-linejoin:round;stroke-dasharray:none;stroke-dashoffset:0;stroke-opacity:0;paint-order:stroke fill markers"
       id="path2"
       cx="105.58983"
       cy="150.73372"
       rx="0.68427354"
       ry="0.77271873" /><path
       style="opacity:1;fill:#000000;fill-opacity:1;stroke:url(#linearGradient15);stroke-width:0.566;stroke-linecap:square;stroke-linejoin:round;stroke-dasharray:none;stroke-dashoffset:0;stroke-opacity:1;paint-order:stroke fill markers"
       d="m 106.47494,149.61189 c -0.0681,0.0377 -0.87115,-0.1105 -0.99407,-0.22119 -0.12679,-0.114 0.10848,-0.81255 0.22658,-1.04582 0.13915,-0.27455 0.59245,-0.79151 0.96835,-0.95647 0.36014,-0.15804 0.73439,-0.30781 0.97311,-0.37421 0.23869,-0.0664 0.66147,-0.25349 0.84967,-0.41291 0.18829,-0.15938 0.52315,-0.47511 0.594,-0.82363 0.0707,-0.34851 0.0359,-0.53832 -0.075,-0.81022 -0.11089,-0.27189 -0.39176,-0.51138 -0.66346,-0.62615 -0.26874,-0.10022 -0.56769,-0.16123 -1.07456,0.0421 -0.2824,0.11319 -0.55599,0.42685 -0.65899,0.62683 -0.10295,0.19995 -0.39505,0.19217 -0.59,0.0143 -0.19491,-0.17774 -0.40367,-0.37405 -0.12048,-0.7493 0.37063,-0.49108 1.36587,-1.02888 2.28101,-0.88582 0.72907,0.15047 1.19275,0.48533 1.4498,0.84172 0.29133,0.40384 0.48633,0.87976 0.33631,1.73645 -0.20564,1.17492 -1.08994,1.56354 -1.65891,1.79667 -0.56166,0.23014 -1.10852,0.2782 -1.47928,0.75468 -0.34643,0.44529 -0.28477,1.04847 -0.36443,1.09252 z"
       id="path11" /></g></svg>
